<?xml version="1.0" standalone="no"?>
<!DOCTYPE svg PUBLIC "-//W3C//DTD SVG 20010904//EN"
 "http://www.w3.org/TR/2001/REC-SVG-20010904/DTD/svg10.dtd">
<svg version="1.0" xmlns="http://www.w3.org/2000/svg"
 width="169.000000pt" height="165.000000pt" viewBox="0 0 169.000000 165.000000"
 preserveAspectRatio="xMidYMid meet">

<g transform="translate(0.000000,165.000000) scale(0.100000,-0.100000)"
fill="#000000" stroke="none">
<path d="M140 1520 c0 -5 -7 -10 -15 -10 -20 0 -85 -65 -85 -85 0 -8 -4 -15
-10 -15 -7 0 -10 -207 -10 -600 0 -393 3 -600 10 -600 6 0 10 -7 10 -15 0 -20
65 -85 85 -85 8 0 15 -4 15 -10 0 -7 247 -10 720 -10 473 0 720 3 720 10 0 6
7 10 15 10 9 0 32 17 53 37 l37 37 0 626 0 626 -37 37 c-21 20 -44 37 -53 37
-8 0 -15 5 -15 10 0 7 -247 10 -720 10 -473 0 -720 -3 -720 -10z m1426 -124
c12 -12 14 -83 14 -430 0 -229 -2 -416 -5 -416 -3 0 -95 90 -205 200 -110 110
-204 200 -210 200 -6 0 -60 -50 -120 -110 -60 -61 -114 -110 -120 -110 -6 0
-87 77 -180 170 -93 94 -174 170 -180 170 -6 0 -100 -90 -210 -200 -110 -110
-202 -200 -205 -200 -3 0 -5 160 -5 355 0 271 3 359 13 370 18 21 1391 22
1413 1z m-786 -716 c115 -115 215 -210 221 -210 14 0 39 26 39 41 0 6 10 20
21 30 l22 19 -32 29 c-17 16 -31 34 -31 40 0 14 126 141 140 141 6 0 102 -92
215 -205 l205 -205 0 -61 c0 -39 -5 -65 -14 -75 -22 -21 -1390 -21 -1412 0
-11 11 -14 44 -14 135 l0 121 203 204 c111 113 208 205 215 205 7 1 107 -93
222 -209z"/>
<path d="M1300 1280 c0 -5 -7 -10 -16 -10 -20 0 -44 -24 -44 -44 0 -9 -4 -16
-10 -16 -5 0 -10 -18 -10 -40 0 -22 5 -40 10 -40 6 0 10 -7 10 -16 0 -20 24
-44 44 -44 9 0 16 -4 16 -10 0 -5 18 -10 40 -10 22 0 40 5 40 10 0 6 7 10 16
10 20 0 44 24 44 44 0 9 5 16 10 16 6 0 10 18 10 40 0 22 -4 40 -10 40 -5 0
-10 7 -10 16 0 20 -24 44 -44 44 -9 0 -16 5 -16 10 0 6 -18 10 -40 10 -22 0
-40 -4 -40 -10z"/>
</g>
</svg>
