
<svg xmlns="http://www.w3.org/2000/svg"
 width="110.000000pt" height="110.000000pt" viewBox="0 0 110.000000 110.000000"
 preserveAspectRatio="xMidYMid meet">

<g transform="translate(0.000000,110.000000) scale(0.100000,-0.100000)"
fill="#000000" stroke="none">
<path d="M430 1006 c-160 -45 -301 -191 -339 -351 -20 -84 -18 -187 5 -225 31
-54 65 -72 145 -79 63 -6 75 -11 99 -37 21 -24 28 -45 33 -94 8 -71 28 -113
70 -144 24 -18 43 -21 125 -21 83 0 107 4 167 28 135 55 227 147 282 282 25
62 28 82 27 175 0 92 -4 113 -29 174 -27 65 -92 158 -140 198 -41 36 -142 86
-193 97 -68 14 -195 13 -252 -3z m295 -91 c119 -53 210 -160 235 -276 20 -89
9 -205 -25 -275 -40 -81 -112 -154 -191 -195 -58 -29 -77 -34 -158 -36 -118
-5 -128 2 -137 97 -11 121 -72 181 -202 196 -35 4 -64 14 -78 27 -19 18 -21
27 -17 101 7 116 37 184 118 267 62 64 95 84 185 115 64 22 197 12 270 -21z"/>
<path d="M472 850 c-47 -44 -13 -120 53 -120 18 0 41 9 53 20 47 44 13 120
-53 120 -18 0 -41 -9 -53 -20z"/>
<path d="M700 778 c-43 -46 -11 -128 50 -128 17 0 38 9 50 22 43 46 11 128
-50 128 -17 0 -38 -9 -50 -22z"/>
<path d="M250 700 c-43 -43 -11 -120 50 -120 17 0 39 9 50 20 43 43 11 120
-50 120 -17 0 -39 -9 -50 -20z"/>
<path d="M772 550 c-47 -44 -13 -120 53 -120 18 0 41 9 53 20 47 44 13 120
-53 120 -18 0 -41 -9 -53 -20z"/>
<path d="M625 325 c-14 -13 -25 -36 -25 -50 0 -33 42 -75 75 -75 33 0 75 42
75 75 0 33 -42 75 -75 75 -14 0 -37 -11 -50 -25z"/>
</g>
</svg>
