<?xml version="1.0" standalone="no"?>
<!DOCTYPE svg PUBLIC "-//W3C//DTD SVG 20010904//EN"
 "http://www.w3.org/TR/2001/REC-SVG-20010904/DTD/svg10.dtd">
<svg version="1.0" xmlns="http://www.w3.org/2000/svg"
 width="81.000000pt" height="80.000000pt" viewBox="0 0 81.000000 80.000000"
 preserveAspectRatio="xMidYMid meet">

<g transform="translate(0.000000,80.000000) scale(0.100000,-0.100000)"
fill="#000000" stroke="none">
<path d="M309 765 c-15 -8 -34 -32 -43 -55 l-16 -40 -104 0 c-74 0 -105 -4
-108 -12 -9 -25 4 -38 38 -38 l34 0 0 -259 c0 -245 1 -260 20 -284 12 -15 38
-31 58 -37 44 -12 189 -13 196 -2 3 5 -2 18 -10 30 -13 20 -24 22 -99 22 -121
0 -116 -11 -113 286 l3 239 205 0 205 0 3 -82 c2 -46 7 -83 12 -83 4 0 15 -3
24 -6 13 -5 16 8 18 83 l3 88 30 3 c33 4 46 18 38 39 -4 10 -31 13 -108 13
l-103 0 -21 43 c-31 64 -100 86 -162 52z m92 -45 c10 -6 19 -20 19 -30 0 -17
-7 -20 -50 -20 -43 0 -50 3 -50 20 0 33 44 49 81 30z"/>
<path d="M287 514 c-4 -4 -7 -79 -7 -166 l0 -158 25 0 25 0 -2 162 c-3 138 -5
163 -18 166 -9 1 -19 0 -23 -4z"/>
<path d="M417 514 c-9 -10 -9 -124 1 -124 4 0 15 7 25 14 24 18 21 109 -3 114
-9 1 -19 0 -23 -4z"/>
<path d="M495 391 c-74 -34 -125 -111 -125 -189 0 -55 43 -134 91 -168 32 -22
55 -29 103 -32 77 -4 137 24 181 87 27 38 30 51 30 115 0 64 -4 78 -29 114
-34 50 -112 92 -170 92 -23 0 -59 -9 -81 -19z m120 -121 c35 36 75 53 75 32 0
-4 -18 -26 -40 -47 -22 -21 -40 -44 -40 -49 0 -6 19 -30 42 -53 33 -34 39 -46
30 -55 -9 -9 -21 -3 -55 30 -23 23 -47 42 -53 42 -5 0 -28 -18 -49 -40 -21
-22 -43 -40 -47 -40 -21 0 -4 40 32 75 l40 39 -45 46 c-35 36 -43 48 -33 58
10 10 22 2 58 -33 l46 -45 39 40z"/>
</g>
</svg>
