<?xml version="1.0" standalone="no"?>
<!DOCTYPE svg PUBLIC "-//W3C//DTD SVG 20010904//EN"
 "http://www.w3.org/TR/2001/REC-SVG-20010904/DTD/svg10.dtd">
<svg version="1.0" xmlns="http://www.w3.org/2000/svg"
 width="145.000000pt" height="145.000000pt" viewBox="0 0 145.000000 145.000000"
 preserveAspectRatio="xMidYMid meet">

<g transform="translate(0.000000,145.000000) scale(0.100000,-0.100000)"
fill="#000000" stroke="none">
<path d="M210 1430 c0 -5 -7 -10 -15 -10 -20 0 -85 -65 -85 -85 0 -8 -4 -15
-10 -15 -6 0 -10 -107 -10 -300 l0 -300 60 0 60 0 0 286 c0 234 3 288 14 300
12 11 66 14 300 14 l286 0 0 -180 0 -180 180 0 180 0 0 -120 0 -120 60 0 60 0
0 165 0 165 -195 195 -195 195 -345 0 c-223 0 -345 -4 -345 -10z m795 -275
c36 -35 65 -67 65 -70 0 -3 -31 -5 -70 -5 l-70 0 0 70 c0 39 2 70 5 70 3 0 35
-29 70 -65z"/>
<path d="M90 540 l0 -60 60 0 60 0 0 -240 0 -240 60 0 60 0 0 240 0 240 60 0
60 0 0 60 0 60 -180 0 -180 0 0 -60z"/>
<path d="M570 590 c0 -5 5 -10 10 -10 6 0 10 -13 10 -30 0 -16 5 -30 10 -30 6
0 10 -9 10 -20 0 -11 5 -20 10 -20 6 0 10 -13 10 -30 0 -16 5 -30 10 -30 6 0
10 -9 10 -20 0 -11 5 -20 10 -20 6 0 10 -13 10 -30 0 -16 5 -30 10 -30 6 0 10
-9 10 -20 0 -11 -4 -20 -10 -20 -5 0 -10 -13 -10 -30 0 -16 -4 -30 -10 -30 -5
0 -10 -9 -10 -20 0 -11 -4 -20 -10 -20 -5 0 -10 -13 -10 -30 0 -16 -4 -30 -10
-30 -5 0 -10 -9 -10 -20 0 -11 -4 -20 -10 -20 -5 0 -10 -13 -10 -30 0 -16 -4
-30 -10 -30 -5 0 -10 -4 -10 -10 0 -5 25 -10 56 -10 62 0 84 14 84 54 0 14 5
26 10 26 6 0 10 9 10 20 0 13 7 20 20 20 13 0 20 -7 20 -20 0 -11 5 -20 10
-20 6 0 10 -12 10 -26 0 -40 22 -54 84 -54 31 0 56 5 56 10 0 6 -4 10 -10 10
-5 0 -10 14 -10 30 0 17 -4 30 -10 30 -5 0 -10 9 -10 20 0 11 -4 20 -10 20 -5
0 -10 14 -10 30 0 17 -4 30 -10 30 -5 0 -10 9 -10 20 0 11 -4 20 -10 20 -5 0
-10 14 -10 30 0 17 -4 30 -10 30 -5 0 -10 9 -10 20 0 11 5 20 10 20 6 0 10 14
10 30 0 17 5 30 10 30 6 0 10 9 10 20 0 11 5 20 10 20 6 0 10 14 10 30 0 17 5
30 10 30 6 0 10 9 10 20 0 11 5 20 10 20 6 0 10 14 10 30 0 17 5 30 10 30 6 0
10 5 10 10 0 6 -25 10 -56 10 -62 0 -84 -14 -84 -54 0 -14 -4 -26 -10 -26 -5
0 -10 -9 -10 -20 0 -13 -7 -20 -20 -20 -13 0 -20 7 -20 20 0 11 -4 20 -10 20
-5 0 -10 12 -10 26 0 40 -22 54 -84 54 -31 0 -56 -4 -56 -10z"/>
<path d="M1050 540 l0 -60 60 0 60 0 0 -240 0 -240 60 0 60 0 0 240 0 240 60
0 60 0 0 60 0 60 -180 0 -180 0 0 -60z"/>
</g>
</svg>
